<svg xmlns="http://www.w3.org/2000/svg" xmlns:xlink="http://www.w3.org/1999/xlink" width="500" zoomAndPan="magnify" viewBox="0 0 375 374.999991" height="500" preserveAspectRatio="xMidYMid meet" version="1.0"><defs><g/></defs><g fill="#ffffff" fill-opacity="1"><g transform="translate(8.532513, 52.623306)"><g><path d="M 198.484375 164.0625 C 189.839844 182.835938 177.25 197.214844 160.707031 207.199219 C 144.167969 217.183594 125.316406 222.175781 104.160156 222.175781 C 81.808594 222.175781 62.882812 216.886719 47.386719 206.304688 C 31.886719 195.726562 20.117188 182.015625 12.070312 165.179688 C 4.023438 148.339844 0 130.382812 0 111.3125 C 0 111.3125 0 111.164062 0 110.863281 L 64.371094 110.863281 C 64.371094 111.164062 64.371094 111.3125 64.371094 111.3125 C 64.371094 123.230469 68.023438 133.664062 75.324219 142.601562 C 82.625 151.542969 92.238281 156.015625 104.160156 156.015625 C 113.097656 156.015625 120.699219 153.703125 126.957031 149.085938 C 133.214844 144.464844 138.132812 138.730469 141.710938 131.875 C 145.285156 125.019531 147.222656 118.164062 147.519531 111.3125 C 147.519531 109.820312 148.042969 103.859375 149.085938 93.429688 C 150.128906 83 153.628906 71.226562 159.589844 58.113281 C 168.234375 39.636719 180.230469 25.332031 195.578125 15.199219 C 210.925781 5.066406 229.03125 0 249.890625 0 C 272.242188 0 291.464844 5.289062 307.558594 15.871094 C 323.652344 26.449219 336.019531 40.234375 344.664062 57.21875 C 353.304688 74.207031 357.625 92.238281 357.625 111.3125 C 357.625 131.875 353.378906 150.351562 344.886719 166.742188 C 336.390625 183.132812 324.472656 196.171875 309.125 205.859375 C 293.773438 215.542969 275.96875 220.535156 255.703125 220.835938 C 255.105469 221.132812 254.363281 220.761719 253.46875 219.714844 C 252.574219 218.671875 252.125 217.40625 252.125 215.917969 L 252.125 160.039062 C 252.125 158.847656 252.574219 157.726562 253.46875 156.683594 C 254.363281 155.640625 255.105469 155.121094 255.703125 155.121094 C 268.519531 154.824219 277.980469 150.351562 284.089844 141.710938 C 290.199219 133.066406 293.253906 122.933594 293.253906 111.3125 C 293.253906 99.09375 289.601562 88.585938 282.300781 79.796875 C 275 71.003906 264.195312 66.609375 249.890625 66.609375 C 237.078125 66.609375 227.316406 71.226562 220.609375 80.464844 C 213.90625 89.703125 210.550781 99.988281 210.550781 111.3125 C 210.550781 112.207031 210.402344 115.183594 210.105469 120.25 C 209.808594 125.316406 208.839844 131.800781 207.199219 139.699219 C 205.5625 147.59375 202.65625 155.714844 198.484375 164.0625 Z M 198.484375 164.0625 "/></g></g></g></svg>